<svg width="80" height="80" viewBox="0 0 80 80" fill="none" xmlns="http://www.w3.org/2000/svg">
<rect width="80" height="80" fill="white"/>
<g clip-path="url(#clip0)">
<path d="M32.412 78.4443C32.412 78.4443 30.4826 75.9443 30.4826 73.1665C30.4826 73.1665 29.4903 74.5554 26.4033 74.5554" stroke="#121212" stroke-miterlimit="10" stroke-linejoin="round"/>
<path d="M24.3636 41.1112C24.3636 41.1112 26.2379 36.0001 26.4033 74.6112L32.412 78.5001H39.9091H43.4371" stroke="#121212" stroke-miterlimit="10" stroke-linejoin="round"/>
<path d="M55.3995 41.111C55.3995 41.111 53.8008 38.7776 53.3598 64.5554" stroke="#121212" stroke-miterlimit="10" stroke-linejoin="round"/>
<path d="M25.7418 49.2223L22.3791 54.0001L14.2756 48.5556L23.0406 31.5556L31.1441 26.7778C31.1441 30.5556 35.058 33.5556 39.9091 33.5556C44.7602 33.5556 48.6741 30.5001 48.6741 26.7778L56.7776 31.5556L65.5426 48.5556L57.384 54.0001L53.8559 49.0001" stroke="#121212" stroke-miterlimit="10" stroke-linejoin="round"/>
<path d="M31.1992 27.8332L39.854 23.4443L48.5639 27.8332" stroke="#121212" stroke-miterlimit="10"/>
<path d="M36.5465 17.6112C36.5465 15.7778 38.0349 14.2778 39.854 14.2778C41.6732 14.2778 43.1616 15.7778 43.1616 17.6112C43.1616 17.6112 43.1616 19.8334 40.9565 20.9445C39.413 21.7223 39.854 23.7223 39.854 23.7223" stroke="#121212" stroke-miterlimit="10"/>
<path d="M69.0155 74H44.8705C43.9333 74 43.1616 74.7778 43.1616 75.7222V77C43.1616 77.9444 43.9333 78.7222 44.8705 78.7222H68.9604C69.8975 78.7222 70.6693 77.9444 70.6693 77V75.7222C70.7244 74.7778 69.9527 74 69.0155 74Z" stroke="#121212" stroke-miterlimit="10"/>
<path d="M69.0155 69.2778H44.8705C43.9333 69.2778 43.1616 70.0556 43.1616 71.0001V72.2778C43.1616 73.2223 43.9333 74.0001 44.8705 74.0001H68.9604C69.8975 74.0001 70.6693 73.2223 70.6693 72.2778V71.0001C70.7244 70.0556 69.9527 69.2778 69.0155 69.2778Z" stroke="#121212" stroke-miterlimit="10"/>
<path d="M69.0155 64.5557H44.8705C43.9333 64.5557 43.1616 65.3334 43.1616 66.2779V67.5557C43.1616 68.5001 43.9333 69.2779 44.8705 69.2779H68.9604C69.8975 69.2779 70.6693 68.5001 70.6693 67.5557V66.2779C70.7244 65.3334 69.9527 64.5557 69.0155 64.5557Z" stroke="#121212" stroke-miterlimit="10"/>
</g>
<defs>
<clipPath id="clip0">
<rect width="57" height="65" fill="white" transform="translate(14 14)"/>
</clipPath>
</defs>
</svg>
