<svg width="80" height="80" viewBox="0 0 80 80" fill="none" xmlns="http://www.w3.org/2000/svg">
<rect width="80" height="80" fill="white"/>
<path d="M39.5266 55.3413H55.5254C55.5254 55.3413 51.4724 59.3443 56.272 67.1396C61.0717 74.9349 55.2054 78.5166 55.2054 78.5166H39.5266H23.9545C23.9545 78.5166 18.0883 74.8296 22.8879 67.1396C27.6875 59.4497 23.5278 55.3413 23.5278 55.3413H39.5266Z" stroke="#121212" stroke-width="0.75" stroke-miterlimit="10" stroke-linecap="round" stroke-linejoin="round"/>
<path d="M27.3675 55.3412C27.1542 53.129 25.981 51.9702 25.981 51.9702H39.5266H53.0722C53.0722 51.9702 51.899 53.129 51.6857 55.3412" stroke="#121212" stroke-width="0.75" stroke-miterlimit="10" stroke-linecap="round" stroke-linejoin="round"/>
<path d="M36.1989 49.4827C36.729 48.5758 35.5046 46.8974 33.4641 45.7338C31.4236 44.5703 29.3397 44.3622 28.8095 45.2691C28.2794 46.176 29.5038 47.8544 31.5443 49.018C33.5848 50.1815 35.6687 50.3896 36.1989 49.4827Z" stroke="#121212" stroke-width="0.75" stroke-miterlimit="10" stroke-linecap="round" stroke-linejoin="round"/>
<path d="M28.3275 45.7554C27.5809 47.0195 28.6475 49.021 30.674 50.1797C32.7005 51.3385 34.9404 51.2331 35.687 49.969" stroke="#121212" stroke-width="0.75" stroke-miterlimit="10" stroke-linecap="round" stroke-linejoin="round"/>
<path d="M46.6459 35.3523C45.9071 34.6055 43.969 35.3537 42.3169 37.0235C40.6649 38.6934 39.9245 40.6524 40.6633 41.3992C41.4021 42.1461 43.3402 41.3978 44.9923 39.728C46.6443 38.0582 47.3847 36.0991 46.6459 35.3523Z" stroke="#121212" stroke-width="0.75" stroke-miterlimit="10" stroke-linecap="round" stroke-linejoin="round"/>
<path d="M41.0083 41.9907C42.0361 43.0391 44.2454 42.5268 45.8892 40.8693C47.533 39.2117 48.011 37.0209 46.9832 35.9726" stroke="#121212" stroke-width="0.75" stroke-miterlimit="10" stroke-linecap="round" stroke-linejoin="round"/>
<path d="M45.4995 52.7081C45.9261 54.1829 47.9527 54.8149 50.0859 54.2882C52.219 53.7615 53.6056 52.076 53.2856 50.7065" fill="white"/>
<path d="M45.4995 52.7081C45.9261 54.1829 47.9527 54.8149 50.0859 54.2882C52.219 53.7615 53.6056 52.076 53.2856 50.7065" stroke="#121212" stroke-width="0.75" stroke-miterlimit="10" stroke-linecap="round" stroke-linejoin="round"/>
<path d="M49.8346 52.8537C52.1105 52.2515 53.733 50.9433 53.4586 49.9317C53.1842 48.9202 51.1168 48.5885 48.8409 49.1907C46.565 49.793 44.9424 51.1012 45.2168 52.1127C45.4912 53.1243 47.5587 53.456 49.8346 52.8537Z" fill="white" stroke="#121212" stroke-width="0.75" stroke-miterlimit="10" stroke-linecap="round" stroke-linejoin="round"/>
</svg>
