<svg width="80" height="80" viewBox="0 0 80 80" fill="none" xmlns="http://www.w3.org/2000/svg">
<rect width="80" height="80" fill="white"/>
<g clip-path="url(#clip0)">
<path d="M72.5118 77.8497H7.51802C5.66958 77.8497 4.14908 76.3452 4.14908 74.4494V70.5375C4.14908 68.6719 5.63976 67.1372 7.51802 67.1372H72.5118C74.3603 67.1372 75.8808 68.6418 75.8808 70.5375V74.4494C75.8509 76.3452 74.3603 77.8497 72.5118 77.8497Z" stroke="#121212" stroke-miterlimit="10"/>
<path d="M71.0808 67.1669C71.0808 64.8499 69.5901 62.9541 67.7118 62.9541H43.3541C41.5056 62.9541 39.9851 64.8499 39.9851 67.1669" stroke="#121212" stroke-miterlimit="10"/>
<path d="M44.3975 62.9544C44.3975 62.9544 62.5838 48.661 37.6298 43.4552C37.6298 43.4552 19.1155 39.3628 15.2695 50.1355C15.0608 50.7073 14.5242 51.0683 13.9279 51.0683H11.8708C11.0658 51.0683 10.4397 50.4063 10.4397 49.624V25.6412C10.4397 24.8287 11.0956 24.1968 11.8708 24.1968H13.7192C14.3751 24.1968 14.9714 24.6481 15.1204 25.3102C15.6869 27.8077 18.8472 33.5251 35.7813 31.9303C57.2472 29.9141 57.2472 29.9141 57.2472 29.9141C57.2472 29.9141 73.7341 29.1017 64.1937 48.7814C64.1937 48.7814 61.6894 53.9872 67.1751 62.9845" stroke="#121212" stroke-miterlimit="10"/>
<path d="M13 51L13 65" stroke="#121212" stroke-width="0.75" stroke-miterlimit="10"/>
<path d="M68.159 50.4661C67.5925 50.4661 67.1453 50.0148 67.1453 49.443V27.4162C67.1453 26.8444 67.5925 26.3931 68.159 26.3931C68.7255 26.3931 69.1727 26.8444 69.1727 27.4162V49.4731C69.1428 50.0148 68.6956 50.4661 68.159 50.4661Z" stroke="#121212" stroke-miterlimit="10"/>
<path d="M55.4583 22.8726C55.4583 22.1504 55.7564 22.1504 56.1142 22.1504C56.472 22.1504 56.7701 22.1504 56.7701 22.8726" stroke="#121212" stroke-miterlimit="10"/>
<path d="M56.1143 47.2164C59.111 47.2164 61.5403 44.7645 61.5403 41.7398C61.5403 38.7152 59.111 36.2632 56.1143 36.2632C53.1175 36.2632 50.6882 38.7152 50.6882 41.7398C50.6882 44.7645 53.1175 47.2164 56.1143 47.2164Z" stroke="#121212" stroke-miterlimit="10"/>
<path d="M54.4745 30.155V23.2641C54.4745 23.0233 54.6534 22.8428 54.8919 22.8428H57.3664C57.6049 22.8428 57.7838 23.0233 57.7838 23.2641V29.8841" stroke="#121212" stroke-miterlimit="10"/>
</g>
<defs>
<clipPath id="clip0">
<rect width="72" height="56" fill="white" transform="translate(4 22)"/>
</clipPath>
</defs>
</svg>
