<svg width="56" height="52" viewBox="0 0 56 52" fill="none" xmlns="http://www.w3.org/2000/svg">
<path d="M8.22109 50.9171C10.8 50.9171 12.8906 48.8464 12.8906 46.292C12.8906 43.7377 10.8 41.667 8.22109 41.667C5.64217 41.667 3.55154 43.7377 3.55154 46.292C3.55154 48.8464 5.64217 50.9171 8.22109 50.9171Z" stroke="black" stroke-miterlimit="10"/>
<path d="M37.3892 50.9171C39.9681 50.9171 42.0587 48.8464 42.0587 46.292C42.0587 43.7377 39.9681 41.667 37.3892 41.667C34.8102 41.667 32.7196 43.7377 32.7196 46.292C32.7196 48.8464 34.8102 50.9171 37.3892 50.9171Z" stroke="black" stroke-miterlimit="10"/>
<path d="M39.7905 36.2819L43.2427 10.7285L1.09998 17.121L5.65279 36.2819H39.7905ZM39.7905 36.2819L43.2427 41.6667H3.10121" stroke="black" stroke-miterlimit="10"/>
<path d="M43.2427 10.7294L43.7931 5.88963L53.916 2.02441" stroke="black" stroke-miterlimit="10"/>
<path d="M8.2211 41.667V45.8626" stroke="black" stroke-miterlimit="10"/>
<path d="M37.3892 41.667V45.8626" stroke="black" stroke-miterlimit="10"/>
<path d="M8.82153 15.9492V36.2829" stroke="black" stroke-miterlimit="10"/>
<path d="M16.5596 14.7764V36.2828" stroke="black" stroke-miterlimit="10"/>
<path d="M24.2977 13.6035V36.2827" stroke="black" stroke-miterlimit="10"/>
<path d="M32.0358 12.4307V36.2827" stroke="black" stroke-miterlimit="10"/>
<path d="M2.81784 24.3563L42.0587 19.5" stroke="black" stroke-miterlimit="10"/>
<path d="M4.31879 30.6337L40.8413 28.4863" stroke="black" stroke-miterlimit="10"/>
<path d="M54.8833 2.65149L48.0791 4.73276C47.9957 4.7658 47.8956 4.71624 47.8623 4.63365L47.6288 3.97293C47.5954 3.89034 47.6455 3.79124 47.7289 3.7582L54.2829 0.999693C54.3663 0.966657 54.483 0.999693 54.5164 1.0988L55 2.42024C55.0167 2.51935 54.9667 2.61846 54.8833 2.65149Z" fill="black"/>
</svg>
