<svg width="184" height="184" viewBox="0 0 184 184" fill="none" xmlns="http://www.w3.org/2000/svg">
<path d="M167.602 152.396L128.534 140.093C128.534 140.093 143.757 127.866 139.563 109.063" stroke="#121212" stroke-miterlimit="10"/>
<path d="M124.184 129.999C122.553 141.452 126.281 135.725 126.281 135.725C126.281 135.725 134.126 127.059 133.582 104.077L159.834 110.964" stroke="#121212" stroke-miterlimit="10"/>
<path d="M124.106 137.273L130.786 138.125" stroke="#121212" stroke-miterlimit="10"/>
<path d="M80.1457 114.601C77.272 115.22 74.3982 115.607 71.7575 117C71.6798 117.077 71.6021 117.077 71.4468 117.155C69.1167 118.393 66.476 118.702 63.9906 118.083C60.1848 117.077 53.2722 115.065 40.5345 110.887C39.6024 110.577 38.8257 109.881 38.5151 108.875C38.3597 108.411 38.3597 107.946 38.5151 107.482C39.0588 105.857 43.8742 105.934 48.8451 107.095C53.8159 108.256 66.709 114.137 71.4468 106.476C71.4468 106.476 63.1362 102.839 55.3693 101.291C53.5052 100.905 51.7965 99.8986 50.4761 98.5058C44.7286 92.238 29.1171 75.4464 28.1074 74.5178C26.8647 73.4345 28.2627 71.4999 28.8841 71.0357C29.5054 70.6488 34.0103 68.7142 38.8257 75.988C43.4859 82.5654 52.8062 88.7558 52.8062 88.7558L42.3985 67.9404C42.3985 67.9404 40.3791 57.9583 39.2141 55.0952C39.2141 55.0952 39.3694 53.0833 40.9228 53.0833C42.3985 53.006 45.583 52.9286 48.6121 60.125C51.6412 67.3214 52.8062 68.25 52.8062 68.25C52.8062 68.25 56.7673 74.4404 58.6314 79.0059C58.6314 79.0059 70.9031 92.238 63.1362 75.9106C62.6702 74.9047 62.9032 73.6666 63.6022 72.738C65.7769 70.0297 70.8254 64.1488 75.4079 61.4405C75.4079 61.4405 84.4952 57.8809 87.7573 57.8036C88.9224 57.8036 89.5437 58.4226 89.8544 59.1964C90.6311 61.0536 89.8544 63.1428 88.1457 64.2262C85.9709 65.619 82.4758 66.4702 79.9127 68.4821C76.6506 71.0357 66.709 79.0059 85.8156 88.9106C102.048 97.3451 105.544 76.2202 94.9805 66.4702C93.8932 65.5416 93.2718 64.1488 93.1942 62.7559C93.1942 61.6726 93.5825 60.5893 95.0582 60.2797C98.3203 59.6607 102.437 63.4524 103.369 64.6131C104.301 65.7738 110.67 78.5416 113.854 81.6368C117.66 85.3511 123.252 93.476 124.029 98.1189C124.572 101.137 129.854 104.851 133.504 107.095" stroke="#121212" stroke-miterlimit="10"/>
<path d="M128.145 132.863L119.679 124.97C118.126 123.5 116.417 122.262 114.631 121.101" stroke="#121212" stroke-miterlimit="10"/>
<path d="M52.8839 88.7559C52.8839 88.7559 61.3498 93.2439 65.4662 93.9404" stroke="#121212" stroke-miterlimit="10"/>
<path d="M109.893 102.761C109.893 102.761 100.573 96.7257 88.3787 99.2793" stroke="#121212" stroke-miterlimit="10"/>
<path d="M114.553 121.101C114.553 121.101 112.844 121.024 105.544 120.869C98.0873 120.637 94.6699 119.167 90.5534 117.619C86.4369 116.071 86.3593 115.22 80.1457 114.601" stroke="#121212" stroke-miterlimit="10"/>
<path d="M71.6021 106.399C71.6021 106.399 72.2235 105.547 73.1555 104.387C73.1555 104.387 74.2429 103.226 76.1846 102.762" stroke="#121212" stroke-miterlimit="10"/>
<path d="M92.4951 63.3749C92.4951 63.9165 92.0291 64.3808 91.4854 64.3808C90.9417 64.3808 90.4757 63.9165 90.4757 63.3749C90.4757 62.8332 91.4854 26 91.4854 26C91.4854 26 92.4951 62.8332 92.4951 63.3749Z" stroke="#121212" stroke-width="0.75" stroke-miterlimit="10"/>
<path d="M91.7961 63.0654C91.7961 63.2975 91.7184 63.5297 91.4854 63.5297C91.2524 63.5297 91.1747 63.2975 91.1747 63.0654C91.1747 62.8332 91.4854 61.1309 91.4854 61.1309C91.4854 61.1309 91.7961 62.8332 91.7961 63.0654Z" stroke="#121212" stroke-width="0.25" stroke-miterlimit="10"/>
<path d="M91.4854 64.3809C91.4854 64.3809 83.2525 69.8749 92.2621 73.2023C101.272 76.5296 95.0582 81.2498 87.4466 80.9403C79.8351 80.6308 81.3884 86.357 81.3884 86.357" stroke="#121212" stroke-width="0.67" stroke-miterlimit="10"/>
<path d="M90.5534 117.541C90.5534 117.541 67.408 135.184 107.408 152.594" stroke="#121212" stroke-width="0.67" stroke-miterlimit="10"/>
<path d="M63.2138 83.1069C63.2138 83.1069 65.0779 84.7319 68.9614 86.4343" stroke="#121212" stroke-miterlimit="10"/>
</svg>
