<svg width="35" height="35" viewBox="0 0 35 35" fill="none" xmlns="http://www.w3.org/2000/svg">
<path d="M25.3409 0H9.65847C4.33279 0 0 4.333 0 9.65868V25.3411C0 30.667 4.33279 34.9998 9.65847 34.9998H25.3409C30.667 34.9998 34.9998 30.6668 34.9998 25.3411V9.65868C35 4.333 30.667 0 25.3409 0ZM31.8946 25.3411C31.8946 28.9547 28.9547 31.8944 25.3411 31.8944H9.65847C6.04508 31.8946 3.10535 28.9547 3.10535 25.3411V9.65868C3.10535 6.04529 6.04508 3.10535 9.65847 3.10535H25.3409C28.9545 3.10535 31.8944 6.04529 31.8944 9.65868V25.3411H31.8946Z" fill="black"/>
<path d="M17.4999 8.48169C12.527 8.48169 8.48132 12.5273 8.48132 17.5002C8.48132 22.473 12.527 26.5184 17.4999 26.5184C22.4728 26.5184 26.5184 22.473 26.5184 17.5002C26.5184 12.5273 22.4728 8.48169 17.4999 8.48169ZM17.4999 23.4128C14.2395 23.4128 11.5867 20.7605 11.5867 17.5C11.5867 14.2394 14.2393 11.5868 17.4999 11.5868C20.7605 11.5868 23.4131 14.2394 23.4131 17.5C23.4131 20.7605 20.7603 23.4128 17.4999 23.4128Z" fill="black"/>
<path d="M26.8966 5.84863C26.2983 5.84863 25.7106 6.09085 25.2881 6.51525C24.8635 6.93758 24.6194 7.52552 24.6194 8.12589C24.6194 8.72439 24.8637 9.31213 25.2881 9.73653C25.7104 10.1589 26.2983 10.4031 26.8966 10.4031C27.497 10.4031 28.0829 10.1589 28.5073 9.73653C28.9317 9.31213 29.1739 8.72419 29.1739 8.12589C29.1739 7.52552 28.9317 6.93758 28.5073 6.51525C28.085 6.09085 27.497 5.84863 26.8966 5.84863Z" fill="black"/>
</svg>
