<svg width="39" height="39" viewBox="0 0 39 39" fill="none" xmlns="http://www.w3.org/2000/svg">
<path d="M37.7051 35.5113L28.732 26.5383C30.9563 23.8266 32.2969 20.3531 32.2969 16.5674C32.2969 7.88379 25.251 0.837891 16.5674 0.837891C7.87617 0.837891 0.837891 7.88379 0.837891 16.5674C0.837891 25.251 7.87617 32.2969 16.5674 32.2969C20.3531 32.2969 23.8189 30.9639 26.5307 28.7396L35.5037 37.7051C36.1131 38.3145 37.0957 38.3145 37.7051 37.7051C38.3145 37.1033 38.3145 36.1131 37.7051 35.5113ZM16.5674 29.1662C9.61289 29.1662 3.96094 23.5143 3.96094 16.5674C3.96094 9.62051 9.61289 3.96094 16.5674 3.96094C23.5143 3.96094 29.1738 9.62051 29.1738 16.5674C29.1738 23.5143 23.5143 29.1662 16.5674 29.1662Z" fill="#121212"/>
</svg>
