<svg width="184" height="184" viewBox="0 0 184 184" fill="none" xmlns="http://www.w3.org/2000/svg">
<g clip-path="url(#clip0)">
<path d="M33.2466 53.0709C33.2466 50.5354 35.2843 48.6035 37.6815 48.6035C40.0788 48.6035 42.1164 50.6561 42.1164 53.0709C42.1164 55.4857 38.161 56.8138 38.161 59.8323" stroke="#121212" stroke-miterlimit="10" stroke-linecap="round"/>
<path d="M38.1609 59.9531L27.1335 65.9901" stroke="#121212" stroke-miterlimit="10" stroke-linecap="round"/>
<path d="M38.1609 59.9531L49.0685 65.9901" stroke="#121212" stroke-miterlimit="10" stroke-linecap="round"/>
<path d="M38.1609 129.499H56.1404L57.0993 91.8284L60.3356 98.4691L71.8425 91.104L60.0959 69.8537C58.1781 68.2841 49.9075 64.4204 49.9075 64.4204C46.0719 73.5967 38.2808 72.993 38.2808 72.993C38.2808 72.993 30.6096 73.5967 26.6541 64.4204C26.6541 64.4204 18.3835 68.2841 16.4657 69.8537L4.5993 91.2247L16.1062 98.5898L19.3425 91.9491L20.3014 129.62H38.1609V129.499Z" fill="white" stroke="#121212" stroke-miterlimit="10" stroke-linecap="round"/>
<path d="M58.0582 82.4111C56.8596 85.3089 56.9795 91.9496 56.9795 91.9496" stroke="#121212" stroke-miterlimit="10" stroke-linecap="round"/>
<path d="M18.1439 82.4111C19.3425 85.3089 19.2226 91.9496 19.2226 91.9496" stroke="#121212" stroke-miterlimit="10" stroke-linecap="round"/>
<path d="M59.8561 53.0709C59.8561 50.5354 61.8938 48.6035 64.2911 48.6035C66.8082 48.6035 68.726 50.6561 68.726 53.0709C68.726 55.4857 64.7705 56.8138 64.7705 59.8323" stroke="#121212" stroke-miterlimit="10" stroke-linecap="round"/>
<path d="M64.7706 59.9531L53.863 65.9901" stroke="#121212" stroke-miterlimit="10" stroke-linecap="round"/>
<path d="M64.7706 59.9531L75.798 65.9901" stroke="#121212" stroke-miterlimit="10" stroke-linecap="round"/>
<path d="M64.7705 129.499H82.75L83.7089 91.8284L86.9452 98.4691L98.452 91.104L86.7055 69.8537C84.7876 68.2841 76.5171 64.4204 76.5171 64.4204C72.6815 73.5967 64.8904 72.993 64.8904 72.993C64.8904 72.993 57.2191 73.5967 53.2637 64.4204C53.2637 64.4204 44.9931 68.2841 43.0753 69.8537L31.3287 91.104L42.8356 98.4691L46.0719 91.8284L47.0308 129.499H64.7705Z" fill="white" stroke="#121212" stroke-miterlimit="10" stroke-linecap="round"/>
<path d="M84.7877 82.4111C83.589 85.3089 83.7089 91.9496 83.7089 91.9496" stroke="#121212" stroke-miterlimit="10" stroke-linecap="round"/>
<path d="M44.8733 82.4111C46.0719 85.3089 45.9521 91.9496 45.9521 91.9496" stroke="#121212" stroke-miterlimit="10" stroke-linecap="round"/>
<path d="M86.5856 53.0709C86.5856 50.5354 88.6233 48.6035 91.0206 48.6035C93.5377 48.6035 95.4555 50.6561 95.4555 53.0709C95.4555 55.4857 91.5 56.8138 91.5 59.9531" stroke="#121212" stroke-miterlimit="10" stroke-linecap="round"/>
<path d="M91.5 59.9531L80.4726 65.9901" stroke="#121212" stroke-miterlimit="10" stroke-linecap="round"/>
<path d="M91.5 59.9531L102.408 65.9901" stroke="#121212" stroke-miterlimit="10" stroke-linecap="round"/>
<path d="M91.5 129.499H109.479L110.438 91.8284L113.675 98.4691L125.181 91.104L113.435 69.8537C111.517 68.2841 103.247 64.4204 103.247 64.4204C99.4109 73.5967 91.6199 72.993 91.6199 72.993C91.6199 72.993 83.9486 73.5967 79.9931 64.4204C79.9931 64.4204 71.7226 68.2841 69.8048 69.8537L57.9384 91.2247L69.4452 98.5898L72.6815 91.9491L73.5205 129.499H91.5Z" fill="white" stroke="#121212" stroke-miterlimit="10" stroke-linecap="round"/>
<path d="M111.397 82.4111C110.199 85.3089 110.319 91.9496 110.319 91.9496" stroke="#121212" stroke-miterlimit="10" stroke-linecap="round"/>
<path d="M71.4828 82.4111C72.6815 85.3089 72.5616 91.9496 72.5616 91.9496" stroke="#121212" stroke-miterlimit="10" stroke-linecap="round"/>
<path d="M113.195 53.0709C113.195 50.5354 115.233 48.6035 117.63 48.6035C120.147 48.6035 122.065 50.6561 122.065 53.0709C122.065 55.4857 118.11 56.8138 118.11 59.8323" stroke="#121212" stroke-miterlimit="10" stroke-linecap="round"/>
<path d="M118.11 59.9531L107.202 65.9901" stroke="#121212" stroke-miterlimit="10" stroke-linecap="round"/>
<path d="M118.11 59.9531L129.137 65.9901" stroke="#121212" stroke-miterlimit="10" stroke-linecap="round"/>
<path d="M118.11 129.499H136.089L137.048 91.8284L140.284 98.4691L151.791 91.104L140.045 69.8537C138.127 68.2841 129.856 64.4204 129.856 64.4204C126.021 73.5967 118.229 72.993 118.229 72.993C118.229 72.993 110.558 73.5967 106.603 64.4204C106.603 64.4204 98.3322 68.2841 96.4144 69.8537L84.6678 91.104L96.1746 98.4691L99.4109 91.8284L100.37 129.499H118.11Z" fill="white" stroke="#121212" stroke-miterlimit="10" stroke-linecap="round"/>
<path d="M138.127 82.4111C136.928 85.3089 137.048 91.9496 137.048 91.9496" stroke="#121212" stroke-miterlimit="10" stroke-linecap="round"/>
<path d="M98.2123 82.4111C99.411 85.3089 99.2911 91.9496 99.2911 91.9496" stroke="#121212" stroke-miterlimit="10" stroke-linecap="round"/>
<path d="M139.925 53.0709C139.925 50.5354 141.962 48.6035 144.36 48.6035C146.877 48.6035 148.795 50.6561 148.795 53.0709C148.795 55.4857 144.839 56.8138 144.839 59.8323" stroke="#121212" stroke-miterlimit="10" stroke-linecap="round"/>
<path d="M144.839 59.9531L133.812 65.9901" stroke="#121212" stroke-miterlimit="10" stroke-linecap="round"/>
<path d="M144.839 59.9531L155.747 65.9901" stroke="#121212" stroke-miterlimit="10" stroke-linecap="round"/>
<path d="M144.839 129.499H162.819L163.777 91.8284L167.014 98.4691L178.521 91.104L166.774 69.8537C164.856 68.2841 156.586 64.4204 156.586 64.4204C152.75 73.5967 144.959 72.993 144.959 72.993C144.959 72.993 137.288 73.5967 133.332 64.4204C133.332 64.4204 125.062 68.2841 123.144 69.8537L111.397 91.104L122.904 98.4691L126.14 91.8284L127.099 129.499H144.839Z" fill="white" stroke="#121212" stroke-miterlimit="10" stroke-linecap="round"/>
<path d="M164.736 82.4111C163.538 85.3089 163.658 91.9496 163.658 91.9496" stroke="#121212" stroke-miterlimit="10" stroke-linecap="round"/>
<path d="M124.822 82.4111C126.021 85.3089 125.901 91.9496 125.901 91.9496" stroke="#121212" stroke-miterlimit="10" stroke-linecap="round"/>
<path d="M170.37 171.396V49.811H12.5103V76.8568" stroke="#121212" stroke-miterlimit="10" stroke-linecap="round"/>
<path d="M12.5103 96.2959V171.396" stroke="#121212" stroke-width="1.5" stroke-miterlimit="10" stroke-linecap="round"/>
</g>
<defs>
<clipPath id="clip0">
<rect width="175" height="124" fill="white" transform="translate(4 48)"/>
</clipPath>
</defs>
</svg>
