<svg width="42" height="42" viewBox="0 0 42 42" fill="none" xmlns="http://www.w3.org/2000/svg">
<g clip-path="url(#clip0)">
<path d="M41.7773 30.6594C41.7265 30.5498 41.6791 30.4589 41.635 30.3861C40.9063 29.0737 39.5138 27.4628 37.4583 25.553L37.4149 25.5092L37.3931 25.4878L37.3711 25.4658H37.3491C36.4162 24.5765 35.8254 23.9785 35.578 23.6724C35.1254 23.0892 35.024 22.4989 35.2714 21.9008C35.4462 21.4489 36.1027 20.4946 37.2395 19.0365C37.8374 18.2637 38.311 17.6444 38.6607 17.1778C41.183 13.8246 42.2765 11.6819 41.941 10.7487L41.8107 10.5307C41.7232 10.3994 41.4973 10.2793 41.1332 10.1698C40.7683 10.0605 40.302 10.0424 39.7333 10.1152L33.4355 10.1587C33.3335 10.1226 33.1878 10.126 32.998 10.1698C32.8085 10.2136 32.7136 10.2356 32.7136 10.2356L32.604 10.2903L32.517 10.3561C32.4441 10.3996 32.3639 10.4761 32.2764 10.5855C32.1893 10.6945 32.1165 10.8224 32.0582 10.9682C31.3726 12.7322 30.593 14.3722 29.7181 15.8883C29.1787 16.7923 28.6833 17.5758 28.2309 18.2392C27.779 18.9023 27.4 19.3909 27.0941 19.7041C26.7877 20.0175 26.5112 20.2687 26.2629 20.4584C26.015 20.6482 25.8257 20.7284 25.6946 20.6991C25.5633 20.6697 25.4396 20.6406 25.3225 20.6115C25.1185 20.4802 24.9545 20.3017 24.8308 20.0758C24.7065 19.8498 24.6229 19.5654 24.5792 19.2228C24.5357 18.88 24.5099 18.5851 24.5026 18.3372C24.4958 18.0896 24.4989 17.7393 24.5137 17.2874C24.5288 16.8353 24.5357 16.5294 24.5357 16.369C24.5357 15.8149 24.5465 15.2136 24.5681 14.5649C24.5902 13.9161 24.608 13.4021 24.623 13.0234C24.6378 12.6444 24.6447 12.2434 24.6447 11.8206C24.6447 11.3978 24.619 11.0662 24.5681 10.8256C24.5179 10.5852 24.4408 10.3519 24.3391 10.1257C24.2369 9.89978 24.0872 9.725 23.8908 9.60092C23.6941 9.47699 23.4494 9.37865 23.1583 9.30558C22.3856 9.13072 21.4016 9.03613 20.2059 9.02142C17.4944 8.99232 15.7522 9.16741 14.9795 9.54646C14.6734 9.70662 14.3964 9.92544 14.1487 10.2022C13.8862 10.5231 13.8496 10.6982 14.0391 10.727C14.9139 10.858 15.5332 11.1715 15.8977 11.6672L16.0291 11.9298C16.1313 12.1193 16.2333 12.4547 16.3354 12.9357C16.4373 13.4167 16.5031 13.9488 16.5321 14.5317C16.6048 15.5961 16.6048 16.5072 16.5321 17.2652C16.4591 18.0235 16.3901 18.6138 16.3243 19.0366C16.2586 19.4593 16.1602 19.8019 16.0291 20.0643C15.8977 20.3267 15.8103 20.4871 15.7665 20.5453C15.7228 20.6035 15.6863 20.6402 15.6574 20.6546C15.4679 20.7272 15.2708 20.7642 15.0669 20.7642C14.8626 20.7642 14.6149 20.662 14.3234 20.4578C14.0319 20.2536 13.7295 19.9731 13.416 19.6159C13.1025 19.2586 12.7489 18.7593 12.3552 18.1179C11.9617 17.4765 11.5535 16.7185 11.1307 15.8438L10.7809 15.2095C10.5622 14.8014 10.2635 14.2072 9.88447 13.4274C9.50518 12.6473 9.16994 11.8927 8.8785 11.1638C8.76201 10.8576 8.58699 10.6246 8.35377 10.4642L8.24432 10.3984C8.17156 10.3402 8.05475 10.2784 7.89452 10.2125C7.73406 10.1467 7.56663 10.0995 7.39154 10.0705L1.3998 10.114C0.787522 10.114 0.372085 10.2527 0.153338 10.5298L0.0657928 10.6608C0.0220586 10.7338 0 10.8504 0 11.0108C0 11.1712 0.0437342 11.3681 0.131279 11.6011C1.00596 13.6569 1.95716 15.6395 2.98488 17.5492C4.01259 19.459 4.90566 20.9973 5.66354 22.1629C6.42158 23.3293 7.19424 24.4302 7.98153 25.4649C8.76882 26.5001 9.28996 27.1635 9.54493 27.4549C9.80022 27.7469 10.0007 27.9652 10.1465 28.1109L10.6933 28.6356C11.0432 28.9856 11.5569 29.4047 12.2349 29.893C12.9129 30.3816 13.6636 30.8626 14.4873 31.3367C15.3111 31.8102 16.2695 32.1965 17.363 32.4953C18.4564 32.7944 19.5205 32.9144 20.5557 32.8565H23.0705C23.5805 32.8124 23.967 32.6521 24.2296 32.3753L24.3166 32.2657C24.3751 32.1786 24.4299 32.0435 24.4804 31.8616C24.5316 31.6793 24.557 31.4786 24.557 31.2602C24.5421 30.6335 24.5898 30.0686 24.6989 29.5657C24.8079 29.0629 24.9321 28.6839 25.071 28.4286C25.2099 28.1736 25.3666 27.9583 25.541 27.7839C25.7158 27.609 25.8403 27.5031 25.9134 27.4666C25.986 27.4299 26.044 27.405 26.0877 27.3901C26.4376 27.2735 26.8494 27.3864 27.3236 27.7293C27.7975 28.0719 28.242 28.4949 28.6577 28.9977C29.0732 29.5009 29.5724 30.0655 30.1555 30.6922C30.7389 31.3192 31.249 31.7853 31.6862 32.0919L32.1233 32.3543C32.4153 32.5294 32.7944 32.6897 33.261 32.8355C33.7267 32.9812 34.1348 33.0176 34.4852 32.9448L40.0831 32.8575C40.6368 32.8575 41.0676 32.7658 41.3732 32.5839C41.6795 32.4017 41.8614 32.2009 41.92 31.9826C41.9786 31.764 41.9817 31.516 41.9311 31.2387C41.8793 30.9621 41.8282 30.7687 41.7773 30.6594Z" fill="black"/>
</g>
<defs>
<clipPath id="clip0">
<rect width="42" height="42" fill="white" transform="matrix(1 0 0 -1 0 42)"/>
</clipPath>
</defs>
</svg>
