<svg width="207" height="207" viewBox="0 0 207 207" fill="none" xmlns="http://www.w3.org/2000/svg">
<g clip-path="url(#clip0)">
<path d="M129.887 122.114H77.4557V193.29H129.887V122.114Z" stroke="#1A1A1A" stroke-width="1.5" stroke-miterlimit="10"/>
<path d="M77.4557 122.114L72.9357 112.274C72.3605 111.044 73.2644 109.732 74.5793 109.732H132.845C134.16 109.732 135.064 111.126 134.489 112.274L129.969 122.114V193.29L134.489 203.13C135.064 204.36 134.16 205.672 132.845 205.672H74.5793C73.2644 205.672 72.3605 204.278 72.9357 203.13L77.4557 193.29" stroke="#1A1A1A" stroke-width="1.5" stroke-miterlimit="10"/>
<path d="M77.4557 193.29L129.969 162.54" stroke="#1A1A1A" stroke-miterlimit="10"/>
<path d="M77.5378 188.206L129.969 157.538" stroke="#1A1A1A" stroke-miterlimit="10"/>
<path d="M77.5378 183.122L129.969 152.454" stroke="#1A1A1A" stroke-miterlimit="10"/>
<path d="M77.5378 178.12L129.969 147.37" stroke="#1A1A1A" stroke-miterlimit="10"/>
<path d="M77.5378 173.036L129.969 142.368" stroke="#1A1A1A" stroke-miterlimit="10"/>
<path d="M77.5378 167.952L129.969 137.284" stroke="#1A1A1A" stroke-miterlimit="10"/>
<path d="M77.5378 162.95L129.969 132.2" stroke="#1A1A1A" stroke-miterlimit="10"/>
<path d="M77.5378 157.866L129.969 127.198" stroke="#1A1A1A" stroke-miterlimit="10"/>
<path d="M77.5378 152.782L130.051 122.114" stroke="#1A1A1A" stroke-miterlimit="10"/>
<path d="M87.4817 187.468L123.888 193.29" stroke="#1A1A1A" stroke-miterlimit="10"/>
<path d="M93.8918 183.696L129.969 189.436" stroke="#1A1A1A" stroke-miterlimit="10"/>
<path d="M100.302 179.924L129.969 184.598" stroke="#1A1A1A" stroke-miterlimit="10"/>
<path d="M106.794 176.152L129.969 179.842" stroke="#1A1A1A" stroke-miterlimit="10"/>
<path d="M113.204 172.38L129.969 175.004" stroke="#1A1A1A" stroke-miterlimit="10"/>
<path d="M119.943 168.608L129.969 170.248" stroke="#1A1A1A" stroke-miterlimit="10"/>
<path d="M126.435 164.836L129.969 165.41" stroke="#1A1A1A" stroke-miterlimit="10"/>
<path d="M77.4557 143.27L82.2221 150.076" stroke="#1A1A1A" stroke-miterlimit="10"/>
<path d="M77.4557 131.216L88.057 146.632" stroke="#1A1A1A" stroke-miterlimit="10"/>
<path d="M79.5102 122.114L93.974 143.27" stroke="#1A1A1A" stroke-miterlimit="10"/>
<path d="M87.7282 122.114L99.891 139.826" stroke="#1A1A1A" stroke-miterlimit="10"/>
<path d="M96.0285 122.114L105.808 136.382" stroke="#1A1A1A" stroke-miterlimit="10"/>
<path d="M104.247 122.114L111.643 132.938" stroke="#1A1A1A" stroke-miterlimit="10"/>
<path d="M112.465 122.114L117.56 129.494" stroke="#1A1A1A" stroke-miterlimit="10"/>
<path d="M120.765 122.114L123.477 126.132" stroke="#1A1A1A" stroke-miterlimit="10"/>
<path d="M50.336 142.778H3" stroke="#1A1A1A" stroke-miterlimit="10"/>
<path d="M157.664 142.778H205" stroke="#1A1A1A" stroke-miterlimit="10"/>
<path d="M141.967 104.976L175.415 71.52" stroke="#1A1A1A" stroke-miterlimit="10"/>
<path d="M104 89.232V42" stroke="#1A1A1A" stroke-miterlimit="10"/>
<path d="M66.1147 104.976L32.585 71.52" stroke="#1A1A1A" stroke-miterlimit="10"/>
<path d="M54.4451 163.278L22.8055 176.398" stroke="#1A1A1A" stroke-miterlimit="10"/>
<path d="M153.555 163.278L185.277 176.398" stroke="#1A1A1A" stroke-miterlimit="10"/>
<path d="M157.664 142.778H191.933" stroke="#1A1A1A" stroke-miterlimit="10"/>
<path d="M153.555 122.278L185.277 109.24" stroke="#1A1A1A" stroke-miterlimit="10"/>
<path d="M141.967 104.976L166.211 80.7861" stroke="#1A1A1A" stroke-miterlimit="10"/>
<path d="M124.545 93.3322L137.694 61.7622" stroke="#1A1A1A" stroke-miterlimit="10"/>
<path d="M104 89.2321V55.0381" stroke="#1A1A1A" stroke-miterlimit="10"/>
<path d="M83.4548 93.3322L70.3881 61.7622" stroke="#1A1A1A" stroke-miterlimit="10"/>
<path d="M66.1147 104.976L41.8714 80.7861" stroke="#1A1A1A" stroke-miterlimit="10"/>
<path d="M54.4451 122.278L22.8055 109.24" stroke="#1A1A1A" stroke-miterlimit="10"/>
<path d="M129.969 174.84C129.695 177.3 130.791 182.22 137.365 182.22" stroke="#1A1A1A"/>
</g>
<defs>
<clipPath id="clip0">
<rect width="202" height="164" fill="white" transform="translate(3 42)"/>
</clipPath>
</defs>
</svg>
