<svg width="49" height="67" viewBox="0 0 49 67" fill="none" xmlns="http://www.w3.org/2000/svg">
<path d="M35.229 31.3076C36.1629 30.8188 37.1306 30.8188 37.8947 30.8188C39.236 30.8188 40.3226 32.0492 40.7301 33.347C40.849 33.7347 40.7471 34.3415 40.8829 34.8977C40.8999 34.9819 40.9169 35.0662 40.9169 35.1673L40.9339 35.8752H26.468C26.468 35.8752 25.1946 34.9651 18.8955 30.8188H32.7671L33.4802 31.4762L33.684 31.6279" fill="black"/>
<path d="M35.229 31.3076C36.1629 30.8188 37.1306 30.8188 37.8947 30.8188C39.236 30.8188 40.3226 32.0492 40.7301 33.347C40.849 33.7347 40.7471 34.3415 40.8829 34.8977C40.8999 34.9819 40.9169 35.0662 40.9169 35.1673L40.9339 35.8752H26.468C26.468 35.8752 25.1946 34.9651 18.8955 30.8188H32.7671L33.4802 31.4762L33.684 31.6279" stroke="black" stroke-miterlimit="10"/>
<path d="M24.3117 39.1279C24.3117 39.1279 38.3531 39.1279 40.4924 39.1279C42.6487 39.1279 43.209 40.9314 43.209 40.9314C43.209 40.9314 43.209 47.3361 43.209 49.6958C43.209 52.0554 47.6235 55.5443 47.6235 59.6906C47.6235 63.8537 43.8881 65.9773 43.8881 65.9773H24.3117H4.73531C4.73531 65.9773 1 63.8368 1 59.6906C1 55.5275 5.41446 52.0554 5.41446 49.6958C5.41446 47.3361 5.41446 40.9314 5.41446 40.9314C5.41446 40.9314 5.97475 39.1279 8.13104 39.1279C10.2873 39.1279 24.3117 39.1279 24.3117 39.1279Z" stroke="black" stroke-miterlimit="10"/>
<path d="M5.41446 49.6963C5.41446 49.6963 2.13757 48.2299 2.13757 43.2915C2.13757 38.3531 2.25642 35.8755 7.6896 35.8755C13.1228 35.8755 24.3287 35.8755 24.3287 35.8755" stroke="black" stroke-miterlimit="10"/>
<path d="M43.226 49.6963C43.226 49.6963 46.5028 48.2299 46.5028 43.2915C46.5028 38.3531 46.384 35.8755 40.9508 35.8755C35.5176 35.8755 24.3117 35.8755 24.3117 35.8755" stroke="black" stroke-miterlimit="10"/>
<path d="M24.3117 30.8188H18.9125" stroke="black" stroke-miterlimit="10"/>
<path d="M16.0431 28.4595C20.2877 28.4595 24.3117 28.4595 24.3117 28.4595" stroke="black" stroke-miterlimit="10"/>
<path d="M4.46362 36.3643C4.46362 36.3643 3.71656 28.4595 8.47059 28.4595C8.87807 28.4595 9.35348 28.4595 9.84586 28.4595" stroke="black" stroke-miterlimit="10"/>
<path d="M36.4515 30.8188H37.9116C39.2699 30.8188 40.4245 31.7627 40.7131 33.0605C40.8659 33.7684 40.9678 34.6786 40.9678 35.8752" stroke="black" stroke-miterlimit="10"/>
<path d="M24.3117 30.8188H32.7841" stroke="black" stroke-miterlimit="10"/>
<path d="M31.7993 28.4595C27.8602 28.4595 24.3287 28.4595 24.3287 28.4595" stroke="black" stroke-miterlimit="10"/>
<path d="M44.1768 36.3643C44.1768 36.3643 44.9238 28.4595 40.1698 28.4595C39.983 28.4595 39.7963 28.4595 39.5925 28.4595" stroke="black" stroke-miterlimit="10"/>
<path d="M27.8432 32.8244C27.5546 33.111 27.5886 33.5998 27.9281 33.8526C28.3187 34.1391 28.9469 34.3919 29.8128 34.0885C31.256 33.566 29.3883 31.257 27.8432 32.8244Z" stroke="white" stroke-miterlimit="10"/>
<path d="M27.9112 33.8525L26.2473 35.8751" stroke="white" stroke-miterlimit="10"/>
<path d="M28.7092 34.1895L27.317 35.8749" stroke="white" stroke-miterlimit="10"/>
<path d="M30.2114 6.6466C31.2252 4.14175 30.8621 1.63856 29.4003 1.05556C27.9385 0.472564 25.9317 2.03053 24.9179 4.53538C23.9042 7.04022 24.2673 9.54341 25.7291 10.1264C27.1909 10.7094 29.1977 9.15144 30.2114 6.6466Z" stroke="black" stroke-miterlimit="10"/>
<path d="M29.4053 1.05371L31.5107 2.73917C31.6804 2.87401 31.7823 3.09312 31.7993 3.31223C32.054 9.56529 28.4375 10.4586 27.6905 10.5766C27.6056 10.5934 27.5207 10.5934 27.4528 10.5597L25.7379 10.1215" stroke="black" stroke-miterlimit="10"/>
<path d="M29.6686 22.7355C30.4375 21.7606 29.1813 19.5096 26.8629 17.7077C24.5445 15.9057 22.0418 15.2352 21.2729 16.21C20.504 17.1848 21.7602 19.4359 24.0786 21.2378C26.397 23.0398 28.8998 23.7103 29.6686 22.7355Z" stroke="black" stroke-miterlimit="10"/>
<path d="M29.66 22.7286L28.2678 24.1443C28.1489 24.2792 27.9621 24.3466 27.7754 24.3129C22.8516 23.723 20.7292 19.9813 20.1689 18.734C20.0501 18.498 20.0671 18.2115 20.2029 17.9756L21.2386 16.189" stroke="black" stroke-miterlimit="10"/>
<path d="M37.4521 28.3966C39.7382 26.5546 40.9542 24.2821 40.1683 23.3209C39.3823 22.3597 36.892 23.0737 34.6059 24.9157C32.3199 26.7577 31.1038 29.0302 31.8898 29.9914C32.6758 30.9526 35.1661 30.2386 37.4521 28.3966Z" stroke="black" stroke-miterlimit="10"/>
<path d="M40.1698 23.3184L41.2225 24.9364C41.3413 25.1218 41.3583 25.3409 41.2904 25.56C39.5416 30.2962 35.1781 31.4254 34.0066 31.6445C33.8198 31.6782 33.633 31.6277 33.4972 31.4928L31.8842 29.9928" stroke="black" stroke-miterlimit="10"/>
<path d="M11.5607 27.1616C11.5607 27.1616 12.4267 25.5267 12.5625 24.9873C12.5625 24.9873 16.6034 30.0943 26.485 35.8922C26.485 35.8922 12.5455 29.9426 10.7288 25.9986L7.16327 35.8922" stroke="black" stroke-miterlimit="10"/>
<path d="M20.9329 35.8918H16.6713C14.6169 34.9142 10.3892 32.8579 10.3892 32.3017C10.3892 31.5601 10.8136 29.1162 10.8136 29.1162C10.8136 29.1162 17.4693 34.2569 20.9329 35.8918Z" fill="black" stroke="black" stroke-miterlimit="10"/>
<path d="M40.9509 35.8755H26.485" stroke="black" stroke-miterlimit="10"/>
</svg>
