<svg width="117" height="117" viewBox="0 0 117 117" fill="none" xmlns="http://www.w3.org/2000/svg">
<rect width="117" height="117" fill="white"/>
<path d="M44.7879 102.153C46.3379 102.153 47.5944 100.915 47.5944 99.3863C47.5944 97.858 46.3379 96.6191 44.7879 96.6191C43.2379 96.6191 41.9813 97.858 41.9813 99.3863C41.9813 100.915 43.2379 102.153 44.7879 102.153Z" stroke="black" stroke-width="0.75" stroke-miterlimit="10" stroke-linecap="round"/>
<path d="M33.4101 105.615C34.9601 105.615 36.2166 104.376 36.2166 102.848C36.2166 101.32 34.9601 100.081 33.4101 100.081C31.8601 100.081 30.6036 101.32 30.6036 102.848C30.6036 104.376 31.8601 105.615 33.4101 105.615Z" stroke="black" stroke-width="0.75" stroke-miterlimit="10" stroke-linecap="round"/>
<path d="M32.2985 97.3361C33.8485 97.3361 35.1051 96.0972 35.1051 94.5689C35.1051 93.0407 33.8485 91.8018 32.2985 91.8018C30.7485 91.8018 29.492 93.0407 29.492 94.5689C29.492 96.0972 30.7485 97.3361 32.2985 97.3361Z" stroke="black" stroke-width="0.75" stroke-miterlimit="10" stroke-linecap="round"/>
<path d="M38.1318 90.716C39.6818 90.716 40.9383 89.4771 40.9383 87.9488C40.9383 86.4205 39.6818 85.1816 38.1318 85.1816C36.5818 85.1816 35.3253 86.4205 35.3253 87.9488C35.3253 89.4771 36.5818 90.716 38.1318 90.716Z" stroke="black" stroke-width="0.75" stroke-miterlimit="10" stroke-linecap="round"/>
<path d="M46.8266 89.0998C48.3766 89.0998 49.6331 87.8609 49.6331 86.3326C49.6331 84.8043 48.3766 83.5654 46.8266 83.5654C45.2765 83.5654 44.02 84.8043 44.02 86.3326C44.02 87.8609 45.2765 89.0998 46.8266 89.0998Z" stroke="black" stroke-width="0.75" stroke-miterlimit="10" stroke-linecap="round"/>
<path d="M55.8185 90.716C57.3685 90.716 58.625 89.4771 58.625 87.9488C58.625 86.4205 57.3685 85.1816 55.8185 85.1816C54.2685 85.1816 53.012 86.4205 53.012 87.9488C53.012 89.4771 54.2685 90.716 55.8185 90.716Z" stroke="black" stroke-width="0.75" stroke-miterlimit="10" stroke-linecap="round"/>
<path d="M24 109.392C24 111.964 66.3181 112.322 69.1687 112.322C72.0193 112.322 72.1183 111.009 72.1183 109.392C72.1183 107.775 72.0193 106.462 69.1687 106.462C66.3181 106.462 24 107.091 24 109.392Z" stroke="black" stroke-width="0.75" stroke-miterlimit="10" stroke-linecap="round"/>
<path d="M34.6666 112.923C38.1844 114.716 41.5335 114.966 41.5335 114.966C41.5335 114.966 47.2991 115.34 50.3111 113.604" stroke="black" stroke-width="0.75" stroke-miterlimit="10" stroke-linecap="round"/>
<path d="M49.6437 105.422C48.7371 103.136 49.6105 102.285 50.4286 102.18C52.0207 101.982 55.3706 102.728 55.3706 102.728C55.3706 102.728 63.9277 105.095 69.8757 101.085C75.0167 97.622 75.3484 92.3407 73.3583 88.9481C71.6447 86.0218 67.4324 83.8183 66.2826 83.2587C66.1057 83.1771 65.9288 83.0838 65.763 82.9906C64.6132 82.361 58.9969 79.6679 46.9903 79.05C34.4088 78.4088 28.3944 84.1448 28.3392 84.2031C27.6869 84.8676 24.1822 87.6423 24.7792 96.6543C25.0666 101.026 26.6587 104.419 28.1623 106.692" stroke="black" stroke-width="0.75" stroke-miterlimit="10" stroke-linecap="round"/>
<path d="M73.0979 108.035C73.0979 108.035 73.4721 106.212 76.5208 105.387C79.5694 104.563 88 108.035 88 108.035C88 108.035 84.8633 108.806 82.2109 111.551C79.5584 114.297 76.3226 113.58 75.0459 112.897C72.0633 111.302 73.0979 108.035 73.0979 108.035Z" stroke="black" stroke-width="0.75" stroke-miterlimit="10" stroke-linecap="round"/>
</svg>
