<svg width="117" height="117" viewBox="0 0 117 117" fill="none" xmlns="http://www.w3.org/2000/svg">
<rect width="117" height="117" fill="white"/>
<path d="M56.0524 69.6021V59L58.9019 60.6064L61.7515 59V69.6021H66.4008L62.5681 72.9433L58.9019 76.3006L55.2192 72.9433L51.3864 69.6021H56.0524Z" stroke="black" stroke-width="0.75" stroke-miterlimit="10"/>
<path d="M57.5174 87.4219H76.2855C76.2855 87.4219 71.5309 92.1178 77.1613 101.262C82.7917 110.407 75.9101 114.609 75.9101 114.609H57.5174H39.2498C39.2498 114.609 32.3681 110.283 37.9985 101.262C43.629 92.2414 38.7493 87.4219 38.7493 87.4219H57.5174Z" stroke="black" stroke-width="0.75" stroke-miterlimit="10" stroke-linecap="round" stroke-linejoin="round"/>
<path d="M43.2535 87.4222C43.0032 84.8271 41.6269 83.4678 41.6269 83.4678H57.5172H73.4075C73.4075 83.4678 72.0312 84.8271 71.781 87.4222" stroke="black" stroke-width="0.75" stroke-miterlimit="10" stroke-linecap="round" stroke-linejoin="round"/>
<path d="M53.6135 80.5499C54.2354 79.4861 52.7991 77.5171 50.4054 76.1521C48.0117 74.7871 45.567 74.543 44.9451 75.6069C44.3232 76.6708 45.7595 78.6397 48.1532 80.0047C50.5469 81.3697 52.9915 81.6138 53.6135 80.5499Z" stroke="black" stroke-width="0.75" stroke-miterlimit="10" stroke-linecap="round" stroke-linejoin="round"/>
<path d="M44.3796 76.1768C43.5038 77.6597 44.755 80.0076 47.1323 81.3669C49.5096 82.7263 52.1372 82.6027 53.013 81.1198" stroke="black" stroke-width="0.75" stroke-miterlimit="10" stroke-linecap="round" stroke-linejoin="round"/>
<path d="M64.524 84.3333C65.0245 86.0634 67.4018 86.8049 69.9043 86.187C72.4067 85.5691 74.0333 83.5919 73.6579 81.9854" fill="white"/>
<path d="M64.524 84.3333C65.0245 86.0634 67.4018 86.8049 69.9043 86.187C72.4067 85.5691 74.0333 83.5919 73.6579 81.9854" stroke="black" stroke-width="0.75" stroke-miterlimit="10" stroke-linecap="round" stroke-linejoin="round"/>
<path d="M69.6096 84.5041C72.2794 83.7976 74.1828 82.2629 73.8609 81.0763C73.539 79.8897 71.1137 79.5006 68.4439 80.2071C65.774 80.9136 63.8706 82.4483 64.1925 83.6348C64.5145 84.8214 66.9398 85.2106 69.6096 84.5041Z" fill="white" stroke="black" stroke-width="0.75" stroke-miterlimit="10" stroke-linecap="round" stroke-linejoin="round"/>
</svg>
