<svg width="117" height="117" viewBox="0 0 117 117" fill="none" xmlns="http://www.w3.org/2000/svg">
<rect width="117" height="117" fill="white"/>
<path d="M66.128 114.232H66.878V113.482H66.128V114.232ZM61.904 114.232H61.154V114.982H61.904V114.232ZM61.904 72.312H62.654V71.562H61.904V72.312ZM51.6 72.312V71.562H50.85V72.312H51.6ZM51.6 73.08H50.85V73.83H51.6V73.08ZM55.888 73.08H56.638V72.33H55.888V73.08ZM55.888 114.232V114.982H56.638V114.232H55.888ZM51.6 114.232V113.482H50.85V114.232H51.6ZM51.6 115H50.85V115.75H51.6V115ZM66.128 115V115.75H66.878V115H66.128ZM66.128 113.482H61.904V114.982H66.128V113.482ZM62.654 114.232V72.312H61.154V114.232H62.654ZM61.904 71.562H51.6V73.062H61.904V71.562ZM50.85 72.312V73.08H52.35V72.312H50.85ZM51.6 73.83H55.888V72.33H51.6V73.83ZM55.138 73.08V114.232H56.638V73.08H55.138ZM55.888 113.482H51.6V114.982H55.888V113.482ZM50.85 114.232V115H52.35V114.232H50.85ZM51.6 115.75H66.128V114.25H51.6V115.75ZM66.878 115V114.232H65.378V115H66.878Z" fill="black"/>
</svg>
