<svg width="117" height="117" viewBox="0 0 117 117" fill="none" xmlns="http://www.w3.org/2000/svg">
<g clip-path="url(#clip0)">
<rect width="117" height="117" fill="white"/>
<path d="M23.7396 113.181H16.7078" stroke="black" stroke-width="0.75" stroke-miterlimit="10"/>
<path d="M2.10959 113.181V95.6914H39.1191V113.181" stroke="black" stroke-width="0.75" stroke-miterlimit="10"/>
<path d="M62.8875 111.815H59.1454" stroke="black" stroke-width="0.75" stroke-miterlimit="10"/>
<path d="M83.1194 111.815H77.4446" stroke="black" stroke-width="0.75" stroke-miterlimit="10"/>
<path d="M44.5882 111.816H43.7658V94.3262H96.1549V110.617" stroke="black" stroke-width="0.5" stroke-miterlimit="10"/>
<path d="M5.76943 116.696C7.69985 116.696 9.26477 115.122 9.26477 113.181C9.26477 111.24 7.69985 109.667 5.76943 109.667C3.839 109.667 2.27408 111.24 2.27408 113.181C2.27408 115.122 3.839 116.696 5.76943 116.696Z" stroke="black" stroke-width="0.75" stroke-miterlimit="10"/>
<path d="M13.2124 116.696C15.1429 116.696 16.7078 115.122 16.7078 113.181C16.7078 111.24 15.1429 109.667 13.2124 109.667C11.282 109.667 9.7171 111.24 9.7171 113.181C9.7171 115.122 11.282 116.696 13.2124 116.696Z" stroke="black" stroke-width="0.75" stroke-miterlimit="10"/>
<path d="M27.2761 116.696C29.2065 116.696 30.7715 115.122 30.7715 113.181C30.7715 111.24 29.2065 109.667 27.2761 109.667C25.3457 109.667 23.7808 111.24 23.7808 113.181C23.7808 115.122 25.3457 116.696 27.2761 116.696Z" stroke="black" stroke-width="0.75" stroke-miterlimit="10"/>
<path d="M34.678 116.696C36.6084 116.696 38.1733 115.122 38.1733 113.181C38.1733 111.24 36.6084 109.667 34.678 109.667C32.7476 109.667 31.1826 111.24 31.1826 113.181C31.1826 115.122 32.7476 116.696 34.678 116.696Z" stroke="black" stroke-width="0.75" stroke-miterlimit="10"/>
<path d="M86.368 116.696C88.2985 116.696 89.8634 115.122 89.8634 113.181C89.8634 111.24 88.2985 109.667 86.368 109.667C84.4376 109.667 82.8727 111.24 82.8727 113.181C82.8727 115.122 84.4376 116.696 86.368 116.696Z" stroke="black" stroke-width="0.75" stroke-miterlimit="10"/>
<path d="M93.7699 116.696C95.7004 116.696 97.2653 115.122 97.2653 113.181C97.2653 111.24 95.7004 109.667 93.7699 109.667C91.8395 109.667 90.2746 111.24 90.2746 113.181C90.2746 115.122 91.8395 116.696 93.7699 116.696Z" stroke="black" stroke-width="0.75" stroke-miterlimit="10"/>
<path d="M43.7659 94.3274V87.6293L40.2294 84.0322H59.1043L62.4762 85.1486L60.2557 87.3813" stroke="black" stroke-width="0.75" stroke-miterlimit="10"/>
<path d="M60.2557 87.3805H89.5755C89.5755 87.3805 93.1531 86.5122 93.1531 83.7834C93.1531 81.0546 95.7438 81.1786 95.7438 81.1786H101.172" stroke="black" stroke-width="0.75" stroke-miterlimit="10"/>
<path d="M101.213 86.7191C101.576 86.7191 101.871 85.4788 101.871 83.9489C101.871 82.419 101.576 81.1787 101.213 81.1787C100.85 81.1787 100.555 82.419 100.555 83.9489C100.555 85.4788 100.85 86.7191 101.213 86.7191Z" stroke="black" stroke-width="0.75" stroke-miterlimit="10"/>
<path d="M101.213 86.7197H100.391C98.9924 86.7197 98.3756 86.7197 98.3756 88.7457V89.1591" stroke="black" stroke-width="0.75" stroke-miterlimit="10"/>
<path d="M98.3344 103.092C99.5608 103.092 100.555 99.9826 100.555 96.1463C100.555 92.3101 99.5608 89.2002 98.3344 89.2002C97.108 89.2002 96.1138 92.3101 96.1138 96.1463C96.1138 99.9826 97.108 103.092 98.3344 103.092Z" stroke="black" stroke-width="0.75" stroke-miterlimit="10"/>
<path d="M59.7211 94.327C59.7211 90.4818 60.7081 87.3809 61.9417 87.3809H96.155C94.9213 87.3809 93.9344 90.4818 93.9344 94.327" stroke="black" stroke-width="0.75" stroke-miterlimit="10"/>
<path d="M98.3344 103.051H99.7737V105.821L112.521 115.62H98.3344L97.8409 108.798H96.5662" stroke="black" stroke-width="0.75" stroke-miterlimit="10"/>
<path d="M51.8668 116.736C56.2273 116.736 59.7622 113.182 59.7622 108.798C59.7622 104.414 56.2273 100.859 51.8668 100.859C47.5063 100.859 43.9714 104.414 43.9714 108.798C43.9714 113.182 47.5063 116.736 51.8668 116.736Z" stroke="black" stroke-width="0.75" stroke-miterlimit="10"/>
<path d="M70.1659 116.736C74.5264 116.736 78.0613 113.182 78.0613 108.798C78.0613 104.414 74.5264 100.859 70.1659 100.859C65.8054 100.859 62.2706 104.414 62.2706 108.798C62.2706 113.182 65.8054 116.736 70.1659 116.736Z" stroke="black" stroke-width="0.75" stroke-miterlimit="10"/>
<path d="M43.7659 101.521L39.1191 102.679V113.595H42.9023C42.9023 113.595 42.45 105.532 43.7659 104.416" stroke="black" stroke-width="0.75" stroke-miterlimit="10"/>
<path d="M2.11029 95.6923C2.11029 95.6923 1.78131 94.1625 1 93.873H40.6825C40.0656 94.0384 39.1198 95.6923 39.1198 95.6923" stroke="black" stroke-width="0.75" stroke-miterlimit="10" stroke-linecap="square" stroke-linejoin="bevel"/>
<path d="M82.4203 87.3807V80.2279L78.596 72H84.7643" stroke="black" stroke-width="0.75" stroke-miterlimit="10"/>
<path d="M87.8895 87.3807V80.2279L91.7549 72H84.7642" stroke="black" stroke-width="0.75" stroke-miterlimit="10"/>
<path d="M73.209 87.3814V84.0323C73.209 84.0323 73.0857 83.04 74.9362 83.04C76.7455 83.04 76.7866 84.0323 76.7866 84.0323V87.3814" stroke="black" stroke-width="0.75" stroke-miterlimit="10"/>
<path d="M65.7249 87.5049C65.4782 87.6703 65.2726 87.9184 65.1081 88.1664C64.9436 88.4145 64.7791 88.7039 64.6557 88.9934C64.5324 89.2828 64.4501 89.6136 64.409 89.903C64.3679 90.2338 64.3268 90.5232 64.2856 90.8539C64.2856 90.5232 64.2856 90.1924 64.3268 89.903C64.3679 89.5722 64.409 89.2828 64.5324 88.952C64.6146 88.6213 64.738 88.3318 64.9025 88.0424C65.067 87.753 65.2726 87.5049 65.5604 87.2568L65.7249 87.5049Z" fill="black"/>
<path d="M72.1398 87.5049C71.893 87.6703 71.6874 87.9184 71.5229 88.1664C71.3585 88.4145 71.194 88.7039 71.0706 88.9934C70.9472 89.2828 70.865 89.6136 70.8239 89.903C70.7827 90.2338 70.7416 90.5232 70.7005 90.8539C70.7005 90.5232 70.7005 90.1924 70.7416 89.903C70.7827 89.5722 70.8239 89.2828 70.9472 88.952C71.0295 88.6213 71.1528 88.3318 71.3173 88.0424C71.4818 87.753 71.6874 87.5049 71.9753 87.2568L72.1398 87.5049Z" fill="black"/>
<path d="M78.5959 87.5049C78.3492 87.6703 78.1436 87.9184 77.9791 88.1664C77.8146 88.4145 77.6501 88.7039 77.5268 88.9934C77.4034 89.2828 77.3212 89.6136 77.28 89.903C77.2389 90.2338 77.1978 90.5232 77.1567 90.8539C77.1567 90.5232 77.1567 90.1924 77.1978 89.903C77.2389 89.5722 77.28 89.2828 77.4034 88.952C77.4856 88.6213 77.609 88.3318 77.7735 88.0424C77.938 87.753 78.1436 87.5049 78.4314 87.2568L78.5959 87.5049Z" fill="black"/>
<path d="M85.0521 87.5049C84.8054 87.6703 84.5998 87.9184 84.4353 88.1664C84.2708 88.4145 84.1063 88.7039 83.9829 88.9934C83.8596 89.2828 83.7773 89.6136 83.7362 89.903C83.6951 90.2338 83.654 90.5232 83.6129 90.8539C83.6129 90.5232 83.6129 90.1924 83.654 89.903C83.6951 89.5722 83.7362 89.2828 83.8596 88.952C83.9418 88.6213 84.0652 88.3318 84.2297 88.0424C84.3942 87.753 84.5998 87.5049 84.8876 87.2568L85.0521 87.5049Z" fill="black"/>
<path d="M91.5082 87.5049C91.2615 87.6703 91.0559 87.9184 90.8914 88.1664C90.7269 88.4145 90.5624 88.7039 90.4391 88.9934C90.3157 89.2828 90.2335 89.6136 90.1923 89.903C90.1512 90.2338 90.1101 90.5232 90.069 90.8539C90.069 90.5232 90.069 90.1924 90.1101 89.903C90.1512 89.5722 90.1923 89.2828 90.3157 88.952C90.3979 88.6213 90.5213 88.3318 90.6858 88.0424C90.8503 87.753 91.0559 87.5049 91.3438 87.2568L91.5082 87.5049Z" fill="black"/>
<path d="M57.0071 87.3809H45.493V93.0866" stroke="black" stroke-width="0.5" stroke-miterlimit="10"/>
<path d="M45.493 97.5928H57.0071" stroke="black" stroke-width="0.5" stroke-miterlimit="10"/>
<path d="M61.5305 96.1465H93.1942" stroke="black" stroke-width="0.5" stroke-miterlimit="10"/>
<path d="M61.5305 100.28H93.1942" stroke="black" stroke-width="0.5" stroke-miterlimit="10"/>
<path d="M66.5884 94.3262V97.5925" stroke="black" stroke-width="0.5" stroke-miterlimit="10"/>
<path d="M78.596 94.3262V97.5925" stroke="black" stroke-width="0.5" stroke-miterlimit="10"/>
<path d="M90.5624 94.3262V97.5925" stroke="black" stroke-width="0.5" stroke-miterlimit="10"/>
<path d="M51.8669 110.246C52.6618 110.246 53.3061 109.598 53.3061 108.799C53.3061 107.999 52.6618 107.352 51.8669 107.352C51.072 107.352 50.4276 107.999 50.4276 108.799C50.4276 109.598 51.072 110.246 51.8669 110.246Z" stroke="black" stroke-width="0.75" stroke-miterlimit="10"/>
<path d="M70.166 110.246C70.9609 110.246 71.6053 109.598 71.6053 108.799C71.6053 107.999 70.9609 107.352 70.166 107.352C69.3711 107.352 68.7267 107.999 68.7267 108.799C68.7267 109.598 69.3711 110.246 70.166 110.246Z" stroke="black" stroke-width="0.75" stroke-miterlimit="10"/>
<path d="M51.8669 102.845V107.31" stroke="black" stroke-width="0.75" stroke-miterlimit="10"/>
<path d="M70.166 102.845V107.31" stroke="black" stroke-width="0.75" stroke-miterlimit="10"/>
<path d="M70.166 110.245V114.71" stroke="black" stroke-width="0.75" stroke-miterlimit="10"/>
<path d="M51.8669 110.245V114.71" stroke="black" stroke-width="0.75" stroke-miterlimit="10"/>
<path d="M6.13947 102.845H35.5415" stroke="black" stroke-width="0.5" stroke-miterlimit="10"/>
<path d="M51.8669 108.798H70.166" stroke="black" stroke-width="0.5" stroke-miterlimit="10"/>
<path d="M71.3997 111.817L85.8334 107.931" stroke="black" stroke-width="0.5" stroke-miterlimit="10"/>
<path d="M92.8338 102.488L84.9677 104.601L86.2196 109.314L94.0857 107.202L92.8338 102.488Z" stroke="black" stroke-width="0.75" stroke-miterlimit="10"/>
<path d="M39.1192 113.594H38.1323" stroke="black" stroke-width="0.75" stroke-miterlimit="10"/>
</g>
<defs>
<clipPath id="clip0">
<rect width="117" height="117" fill="white"/>
</clipPath>
</defs>
</svg>
