<svg width="117" height="117" viewBox="0 0 117 117" fill="none" xmlns="http://www.w3.org/2000/svg">
<rect width="117" height="117" fill="white"/>
<path d="M71.3337 100.577H76.809L77.095 88.5621L78.0799 90.6836L81.5748 88.3388L77.974 81.5721C77.4021 81.0696 74.8709 79.8525 74.8709 79.8525C73.6848 82.7781 71.3443 82.5771 71.3443 82.5771C71.3443 82.5771 69.0037 82.7781 67.8176 79.8525C67.8176 79.8525 65.2864 81.0808 64.7145 81.5721L61.1137 88.3388L64.6086 90.6836L65.5936 88.5621L65.8795 100.577H71.3337Z" fill="white" stroke="black" stroke-width="0.75" stroke-miterlimit="10" stroke-linecap="round" stroke-linejoin="round"/>
<path d="M37.0835 70.4838C39.8911 70.4838 42.1671 69.7039 42.1671 68.7419C42.1671 67.7799 39.8911 67 37.0835 67C34.276 67 32 67.7799 32 68.7419C32 69.7039 34.276 70.4838 37.0835 70.4838Z" stroke="black" stroke-width="0.75" stroke-miterlimit="10"/>
<path d="M42.1671 113.473C42.1671 114.433 39.8901 115.215 37.0835 115.215C34.277 115.215 32 114.433 32 113.473" stroke="black" stroke-width="0.75" stroke-miterlimit="10"/>
<path d="M32 113.473V68.7422" stroke="black" stroke-width="0.75" stroke-miterlimit="10"/>
<path d="M42.1671 68.7422V113.473" stroke="black" stroke-width="0.75" stroke-miterlimit="10"/>
<path d="M37.0835 67H84V113.473H42.167" stroke="black" stroke-width="0.75" stroke-miterlimit="10"/>
<path d="M44.8146 81.5273H58.5825" stroke="black" stroke-width="0.75" stroke-miterlimit="10" stroke-linecap="round" stroke-linejoin="round"/>
<path d="M44.8146 86.5518H58.5825" stroke="black" stroke-width="0.75" stroke-miterlimit="10" stroke-linecap="round" stroke-linejoin="round"/>
<path d="M44.8146 91.5762H58.5825" stroke="black" stroke-width="0.75" stroke-miterlimit="10" stroke-linecap="round" stroke-linejoin="round"/>
<path d="M44.8146 96.6016H58.5825" stroke="black" stroke-width="0.75" stroke-miterlimit="10" stroke-linecap="round" stroke-linejoin="round"/>
</svg>
