<svg width="117" height="117" viewBox="0 0 117 117" fill="none" xmlns="http://www.w3.org/2000/svg">
<rect width="117" height="117" fill="white"/>
<path d="M69.9121 99.0428C70.3629 99.0428 70.7283 98.6823 70.7283 98.2377C70.7283 97.7931 70.3629 97.4326 69.9121 97.4326C69.4614 97.4326 69.0959 97.7931 69.0959 98.2377C69.0959 98.6823 69.4614 99.0428 69.9121 99.0428Z" stroke="black" stroke-width="0.75" stroke-miterlimit="10"/>
<path d="M68.7942 105.285C69.022 104.901 68.8914 104.408 68.5024 104.183C68.1134 103.959 67.6135 104.088 67.3856 104.471C67.1578 104.855 67.2885 105.348 67.6774 105.573C68.0664 105.798 68.5664 105.669 68.7942 105.285Z" stroke="black" stroke-width="0.75" stroke-miterlimit="10"/>
<path d="M63.7141 110.298C64.103 110.073 64.2337 109.58 64.0058 109.196C63.778 108.813 63.278 108.684 62.8891 108.909C62.5001 109.133 62.3695 109.626 62.5973 110.01C62.8251 110.394 63.3251 110.523 63.7141 110.298Z" stroke="black" stroke-width="0.75" stroke-miterlimit="10"/>
<path d="M56.5679 112.196C57.0186 112.196 57.384 111.836 57.384 111.391C57.384 110.946 57.0186 110.586 56.5679 110.586C56.1171 110.586 55.7517 110.946 55.7517 111.391C55.7517 111.836 56.1171 112.196 56.5679 112.196Z" stroke="black" stroke-width="0.75" stroke-miterlimit="10"/>
<path d="M50.5442 110.007C50.772 109.623 50.6414 109.13 50.2524 108.905C49.8634 108.68 49.3635 108.809 49.1356 109.193C48.9078 109.577 49.0385 110.07 49.4274 110.295C49.8164 110.519 50.3164 110.39 50.5442 110.007Z" stroke="black" stroke-width="0.75" stroke-miterlimit="10"/>
<path d="M45.4624 105.578C45.8514 105.354 45.982 104.86 45.7542 104.477C45.5264 104.093 45.0264 103.964 44.6374 104.189C44.2484 104.414 44.1178 104.907 44.3456 105.29C44.5734 105.674 45.0734 105.803 45.4624 105.578Z" stroke="black" stroke-width="0.75" stroke-miterlimit="10"/>
<path d="M43.2336 99.0428C43.6844 99.0428 44.0498 98.6823 44.0498 98.2377C44.0498 97.7931 43.6844 97.4326 43.2336 97.4326C42.7829 97.4326 42.4175 97.7931 42.4175 98.2377C42.4175 98.6823 42.7829 99.0428 43.2336 99.0428Z" stroke="black" stroke-width="0.75" stroke-miterlimit="10"/>
<path d="M45.7571 92.0048C45.9849 91.6211 45.8543 91.1279 45.4653 90.9032C45.0763 90.6785 44.5763 90.8074 44.3485 91.191C44.1207 91.5747 44.2513 92.0679 44.6403 92.2926C45.0293 92.5173 45.5293 92.3885 45.7571 92.0048Z" stroke="black" stroke-width="0.75" stroke-miterlimit="10"/>
<path d="M50.2475 87.5743C50.6364 87.3496 50.7671 86.8564 50.5393 86.4727C50.3115 86.089 49.8115 85.9602 49.4225 86.1849C49.0336 86.4096 48.9029 86.9028 49.1307 87.2865C49.3585 87.6702 49.8585 87.7991 50.2475 87.5743Z" stroke="black" stroke-width="0.75" stroke-miterlimit="10"/>
<path d="M56.5676 85.8797C57.0184 85.8797 57.3838 85.5193 57.3838 85.0746C57.3838 84.63 57.0184 84.2695 56.5676 84.2695C56.1169 84.2695 55.7515 84.63 55.7515 85.0746C55.7515 85.5193 56.1169 85.8797 56.5676 85.8797Z" stroke="black" stroke-width="0.75" stroke-miterlimit="10"/>
<path d="M64.0071 87.2822C64.2349 86.8985 64.1042 86.4053 63.7153 86.1806C63.3263 85.9558 62.8263 86.0847 62.5985 86.4684C62.3707 86.8521 62.5013 87.3453 62.8903 87.57C63.2793 87.7947 63.7793 87.6658 64.0071 87.2822Z" stroke="black" stroke-width="0.75" stroke-miterlimit="10"/>
<path d="M68.499 92.2941C68.888 92.0693 69.0186 91.5761 68.7908 91.1925C68.563 90.8088 68.063 90.6799 67.674 90.9046C67.285 91.1294 67.1544 91.6226 67.3822 92.0062C67.6101 92.3899 68.1101 92.5188 68.499 92.2941Z" stroke="black" stroke-width="0.75" stroke-miterlimit="10"/>
<path d="M69.9121 99.0428C70.3629 99.0428 70.7283 98.6823 70.7283 98.2377C70.7283 97.7931 70.3629 97.4326 69.9121 97.4326C69.4614 97.4326 69.0959 97.7931 69.0959 98.2377C69.0959 98.6823 69.4614 99.0428 69.9121 99.0428Z" stroke="black" stroke-width="0.75" stroke-miterlimit="10"/>
<path d="M56.5678 116.552C46.3249 116.552 38 108.33 38 98.2366C38 88.1428 46.3351 79.9209 56.5678 79.9209C66.8005 79.9209 75.1356 88.1428 75.1356 98.2366C75.1356 108.33 66.8107 116.552 56.5678 116.552Z" stroke="black" stroke-width="0.75" stroke-miterlimit="10"/>
<path d="M56.5678 113.534C65.1322 113.534 72.0749 106.685 72.0749 98.2371C72.0749 89.789 65.1322 82.9404 56.5678 82.9404C48.0034 82.9404 41.0606 89.789 41.0606 98.2371C41.0606 106.685 48.0034 113.534 56.5678 113.534Z" stroke="black" stroke-width="0.75" stroke-miterlimit="10"/>
<path d="M56.5678 99.0418C57.0186 99.0418 57.384 98.6814 57.384 98.2367C57.384 97.7921 57.0186 97.4316 56.5678 97.4316C56.1171 97.4316 55.7516 97.7921 55.7516 98.2367C55.7516 98.6814 56.1171 99.0418 56.5678 99.0418Z" stroke="black" stroke-width="0.75" stroke-miterlimit="10"/>
<path d="M56.5678 97.4213V86.623" stroke="black" stroke-width="0.75" stroke-miterlimit="10"/>
<path d="M54.4866 76.5498V80.0117" stroke="black" stroke-width="0.75" stroke-miterlimit="10"/>
<path d="M58.6592 80.0117V76.5498" stroke="black" stroke-width="0.75" stroke-miterlimit="10"/>
<path d="M58.6591 78.5932C60.9852 77.758 62.638 75.554 62.638 72.9778C62.638 69.6769 59.9242 67 56.5779 67C53.2316 67 50.5179 69.6769 50.5179 72.9778C50.5179 75.554 52.1706 77.758 54.4967 78.5932" stroke="black" stroke-width="0.75" stroke-miterlimit="10"/>
<path d="M59.8324 72.5244H53.3133V76.5498H59.8324V72.5244Z" stroke="black" stroke-width="0.75" stroke-miterlimit="10"/>
<path d="M54.4865 77.8693C52.5583 77.0642 51.2116 75.1823 51.2116 72.9985C51.2116 70.0801 53.6091 67.7051 56.5779 67.7051C59.5467 67.7051 61.9442 70.07 61.9442 72.9985C61.9442 75.1924 60.5975 77.0642 58.6693 77.8693" stroke="black" stroke-width="0.75" stroke-miterlimit="10"/>
</svg>
