<svg width="192" height="63" viewBox="0 0 192 63" fill="none" xmlns="http://www.w3.org/2000/svg">
<g clip-path="url(#clip0)">
<path d="M11.6167 47.8922L5.11182 43.2285L4.53146 44.0379L7.33041 46.0447L4.60346 49.8481L1.80452 47.8413L1.22417 48.6508L7.72903 53.3146L8.30938 52.5051L5.32514 50.3655L8.05209 46.5621L11.0363 48.7017L11.6167 47.8922Z" fill="black"/>
<path d="M17.2788 41.3919L9.16086 38.5071L8.34286 39.4308L12.1961 47.1314L12.9506 46.2794L12.0919 44.5749L14.7285 41.5976L16.5244 42.2438L17.2788 41.3919ZM13.8664 41.2341L11.6188 43.772L9.52708 39.6475L13.8664 41.2341Z" fill="black"/>
<path d="M18.9847 28.9803L23.7398 34.2653L21.28 36.4784L16.5249 31.1934L15.7852 31.859L20.5402 37.1439L18.0715 39.3651L13.3165 34.0801L12.5768 34.7456L17.9252 40.6901L25.0728 34.2592L19.7244 28.3147L18.9847 28.9803Z" fill="black"/>
<path d="M27.2942 32.6872L27.3651 24.7789L31.0869 29.9658L31.8961 29.3852L27.2299 22.8821L26.4012 23.4767L26.3021 31.2428L22.6572 26.1631L21.848 26.7438L26.5142 33.2469L27.2942 32.6872Z" fill="black"/>
<path d="M36.5263 26.5401C37.7808 25.7854 38.0593 24.5955 37.3974 23.4953C36.9025 22.6727 35.8443 22.287 35.0462 22.6131C35.593 22.1021 35.8224 21.1798 35.3028 20.3161C34.6842 19.2878 33.5211 19.0072 32.3283 19.7248L29.2743 21.562L33.4004 28.4206L36.5263 26.5401ZM33.9721 22.7831L31.9155 24.0203L30.5856 21.8095L32.6421 20.5723C33.4133 20.1084 34.1215 20.3545 34.4927 20.9715C34.87 21.5987 34.7433 22.3192 33.9721 22.7831ZM35.8937 25.8843L33.7961 27.1462L32.3733 24.7812L34.471 23.5193C35.3142 23.012 36.0801 23.3075 36.4574 23.9347C36.8966 24.6648 36.6958 25.4018 35.8937 25.8843Z" fill="black"/>
<path d="M45.285 21.8611L40.1507 19.7606L41.3995 14.8576L40.2871 15.4234L39.0088 20.7184L37.1318 17.0283L36.2441 17.4799L39.8729 24.614L40.7607 24.1625L39.542 21.7666L39.8451 20.5892L44.1833 22.4215L45.285 21.8611Z" fill="black"/>
<path d="M47.122 21.0448L48.9523 13.3133L51.4434 19.2233L52.3655 18.8347L49.2422 11.4249L48.298 11.8229L46.4717 19.4089L44.0321 13.621L43.11 14.0097L46.2333 21.4194L47.122 21.0448Z" fill="black"/>
<path d="M57.8507 16.9127L60.4455 9.44188L62.3142 15.5463L63.2666 15.2547L60.9237 7.6013L59.9484 7.89987L57.3723 15.2269L55.5422 9.24871L54.5898 9.54025L56.9327 17.1937L57.8507 16.9127Z" fill="black"/>
<path d="M71.5724 13.3349C73.006 13.0383 73.6628 12.0078 73.4026 10.7504C73.2081 9.81035 72.3373 9.09598 71.4762 9.13936C72.1614 8.83827 72.6833 8.04404 72.4791 7.05695C72.2359 5.88185 71.2314 5.23191 69.8683 5.51397L66.3782 6.23613L68 14.0741L71.5724 13.3349ZM70.4065 8.94407L68.0563 9.43038L67.5335 6.90389L69.8837 6.41759C70.765 6.23522 71.3518 6.70201 71.4977 7.40708C71.646 8.12389 71.2878 8.7617 70.4065 8.94407ZM71.1927 12.5067L68.7954 13.0027L68.2362 10.3L70.6334 9.80392C71.597 9.60454 72.2219 10.137 72.3702 10.8538C72.5428 11.6881 72.1093 12.317 71.1927 12.5067Z" fill="black"/>
<path d="M74.2643 4.65489L75.3423 12.586L78.529 12.1528C80.1224 11.9362 80.8655 10.721 80.6893 9.42497C80.5131 8.12889 79.4489 7.1594 77.8793 7.37275L75.6795 7.67176L75.2512 4.52073L74.2643 4.65489ZM77.88 8.26882C78.8194 8.14113 79.5455 8.67217 79.6667 9.56397C79.7879 10.4558 79.2299 11.1614 78.2905 11.289L76.2097 11.5719L75.7991 8.55167L77.88 8.26882ZM82.8572 11.5645L81.7792 3.6334L80.7923 3.76755L81.8703 11.6986L82.8572 11.5645Z" fill="black"/>
<path d="M92.8237 2.90776L93.1974 10.0139L89.89 10.1879L89.5163 3.08171L88.5216 3.13402L88.8954 10.2402L85.576 10.4148L85.2022 3.3086L84.2076 3.36092L84.628 11.3539L94.2387 10.8484L93.8183 2.85544L92.8237 2.90776Z" fill="black"/>
<path d="M96.9908 10.9047L101.817 4.63913L101.657 11.0211L102.653 11.046L102.853 3.04448L101.833 3.01904L97.0705 9.15415L97.2265 2.9041L96.2308 2.87925L96.0311 10.8808L96.9908 10.9047Z" fill="black"/>
<path d="M108.108 11.4821C109.566 11.611 110.492 10.8133 110.605 9.53432C110.689 8.57805 110.061 7.64314 109.224 7.43666C109.967 7.34569 110.695 6.73544 110.784 5.73136C110.89 4.53601 110.115 3.62429 108.728 3.50177L105.178 3.18809L104.474 11.161L108.108 11.4821ZM108.256 6.94153L105.865 6.73029L106.092 4.16031L108.483 4.37154C109.379 4.45075 109.807 5.06676 109.744 5.78397C109.679 6.51313 109.152 7.02074 108.256 6.94153ZM107.983 10.5796L105.544 10.3641L105.787 7.61485L108.226 7.83031C109.206 7.91691 109.651 8.60675 109.586 9.33591C109.511 10.1846 108.915 10.662 107.983 10.5796Z" fill="black"/>
<path d="M117.95 12.7866L114.982 8.08111L118.858 4.80605L117.62 4.61998L113.492 8.19784L114.109 4.09219L113.122 3.9437L111.928 11.8813L112.916 12.0298L113.317 9.36408L114.25 8.57952L116.724 12.6023L117.95 12.7866Z" fill="black"/>
<path d="M125.723 14.4032L124.226 5.86512L123.012 5.60655L118.178 12.7966L119.298 13.0351L120.365 11.4385L124.279 12.272L124.603 14.1648L125.723 14.4032ZM124.17 11.3369L120.834 10.6264L123.409 6.75089L124.17 11.3369Z" fill="black"/>
<path d="M135.972 17.4456L138.369 9.81496L137.42 9.51664L136.388 12.8L131.927 11.3982L132.958 8.11486L132.009 7.81654L129.611 15.4472L130.561 15.7455L131.661 12.2448L136.122 13.6466L135.023 17.1473L135.972 17.4456Z" fill="black"/>
<path d="M144.016 20.5821L143.964 11.9519L142.815 11.4965L136.877 17.7525L137.936 18.1726L139.249 16.7824L142.953 18.2502L142.956 20.1621L144.016 20.5821ZM143.001 17.3141L139.844 16.0629L143.015 12.6858L143.001 17.3141Z" fill="black"/>
<path d="M150.867 24.1039C152.958 25.2068 155.209 24.3861 156.312 22.2951C157.415 20.2041 156.821 17.8831 154.73 16.7802C152.628 15.6717 150.388 16.498 149.285 18.589C148.182 20.68 148.766 22.9954 150.867 24.1039ZM151.281 23.3185C149.689 22.4787 149.33 20.7156 150.198 19.0704C151.071 17.4147 152.724 16.7259 154.316 17.5656C155.897 18.3998 156.272 20.1579 155.399 21.8136C154.531 23.4588 152.863 24.1526 151.281 23.3185Z" fill="black"/>
<path d="M154.423 27.521L155.256 28.0596L156.054 26.8257L161.04 30.0512L160.242 31.2851L161.075 31.8238L162.353 29.8475L161.741 29.4516L165.59 23.5026L161.497 20.8547L158.911 23.9493C157.164 26.0349 156.492 26.0839 155.657 25.6149L154.423 27.521ZM159.695 24.5417L161.759 22.0773L164.277 23.7063L160.909 28.9129L157.036 26.4078C157.768 26.3546 158.609 25.8459 159.695 24.5417Z" fill="black"/>
<path d="M167.022 34.5384L167.563 33.8342L164.194 31.2464L165.875 29.0576L169.177 31.5942L169.718 30.89L166.416 28.3534L167.988 26.3074L171.356 28.8951L171.897 28.1909L167.739 24.9964L162.863 31.3439L167.022 34.5384Z" fill="black"/>
<path d="M168.59 35.7863L173.267 35.2435L173.239 35.9745L171.151 38.195L171.876 38.8773L173.965 36.6568L174.692 36.5835L174.438 41.2859L175.347 42.1408L175.575 36.5903L180.62 36.1126L179.711 35.2577L174.778 35.7913L177.36 33.0464L176.634 32.3641L174.053 35.109L174.291 30.1609L173.382 29.306L173.206 34.3625L167.689 34.9396L168.59 35.7863Z" fill="black"/>
<path d="M174.468 43.4505L175.104 44.2105L176.231 43.2682L180.038 47.8188L178.912 48.7611L179.548 49.5211L181.352 48.0118L180.884 47.4533L186.314 42.9102L183.188 39.1744L179.807 41.3656C177.523 42.8406 176.867 42.6891 176.208 41.9949L174.468 43.4505ZM180.38 42.1623L183.078 40.4189L185.001 42.7172L180.248 46.6933L177.291 43.159C178.005 43.3242 178.959 43.0869 180.38 42.1623Z" fill="black"/>
<path d="M184.298 53.9269L185.03 53.4304L182.655 49.9305L184.928 48.3873L187.257 51.818L187.988 51.3216L185.66 47.8909L187.786 46.4484L190.161 49.9483L190.892 49.4518L187.961 45.1313L181.366 49.6064L184.298 53.9269Z" fill="black"/>
</g>
<defs>
<clipPath id="clip0">
<rect width="192" height="63" fill="white"/>
</clipPath>
</defs>
</svg>
