<svg width="207" height="207" viewBox="0 0 207 207" fill="none" xmlns="http://www.w3.org/2000/svg">
<g clip-path="url(#clip0)">
<path d="M44.4392 138.028L40.2544 127.003L39.437 134.309L26.2943 131.249L30.0213 109.462C30.2829 107.949 30.9367 106.566 31.9502 105.414C34.2715 102.749 38.0639 99.0628 38.1293 98.997C44.7661 106.27 51.7952 103.111 51.7952 103.111C51.7952 103.111 59.2166 101.136 59.8378 91.2632C59.8378 91.2632 64.9707 91.7239 68.4689 92.3163C70.0709 92.5796 71.5748 93.3036 72.8171 94.3896L89.1966 108.837L80.8924 119.533L75.6942 114.366L79.3232 125.588L83.4752 137.995" stroke="#1A1A1A" stroke-width="1.5" stroke-miterlimit="10"/>
<path d="M115.188 138.028H38.1947V204.671H115.188V138.028Z" stroke="#1A1A1A" stroke-width="2" stroke-miterlimit="10"/>
<path d="M109.205 194.502L107.93 192.725" stroke="#1A1A1A" stroke-miterlimit="10"/>
<path d="M107.93 192.724L109.205 190.947" stroke="#1A1A1A" stroke-miterlimit="10"/>
<path d="M109.205 190.948L107.93 189.17" stroke="#1A1A1A" stroke-miterlimit="10"/>
<path d="M107.93 189.17L109.205 187.393" stroke="#1A1A1A" stroke-miterlimit="10"/>
<path d="M109.205 187.393L107.93 185.616" stroke="#1A1A1A" stroke-miterlimit="10"/>
<path d="M107.93 185.616L109.205 183.806" stroke="#1A1A1A" stroke-miterlimit="10"/>
<path d="M109.107 183.806L107.832 182.029" stroke="#1A1A1A" stroke-miterlimit="10"/>
<path d="M107.832 182.029L109.107 180.251" stroke="#1A1A1A" stroke-miterlimit="10"/>
<path d="M109.205 180.252L107.93 178.475" stroke="#1A1A1A" stroke-miterlimit="10"/>
<path d="M107.93 178.475L109.205 176.698" stroke="#1A1A1A" stroke-miterlimit="10"/>
<path d="M109.205 176.698L107.93 174.92" stroke="#1A1A1A" stroke-miterlimit="10"/>
<path d="M107.93 174.92L109.205 173.11" stroke="#1A1A1A" stroke-miterlimit="10"/>
<path d="M109.205 173.11L107.93 171.333" stroke="#1A1A1A" stroke-miterlimit="10"/>
<path d="M107.93 196.279L109.205 194.502" stroke="#1A1A1A" stroke-miterlimit="10"/>
<path d="M107.93 171.333H115.188" stroke="#1A1A1A" stroke-miterlimit="10"/>
<path d="M107.93 196.279H115.188" stroke="#1A1A1A" stroke-miterlimit="10"/>
<path d="M176.969 198H126.031C124.917 198 124 199.581 124 201.5C124 203.419 124.917 205 126.031 205H176.969C178.083 205 179 203.419 179 201.5C179 199.581 178.116 198 176.969 198Z" stroke="#1A1A1A" stroke-width="1.5" stroke-miterlimit="10"/>
<path d="M176.969 191H126.031C124.917 191 124 192.581 124 194.5C124 196.419 124.917 198 126.031 198H176.969C178.083 198 179 196.419 179 194.5C179 192.524 178.116 191 176.969 191Z" stroke="#1A1A1A" stroke-width="1.5" stroke-miterlimit="10"/>
<path d="M176.969 185H126.031C124.917 185 124 186.355 124 188C124 189.645 124.917 191 126.031 191H176.969C178.083 191 179 189.645 179 188C179 186.355 178.116 185 176.969 185Z" stroke="#1A1A1A" stroke-width="1.5" stroke-miterlimit="10"/>
<path d="M176.969 178H126.031C124.917 178 124 179.581 124 181.5C124 183.419 124.917 185 126.031 185H176.969C178.083 185 179 183.419 179 181.5C179 179.581 178.116 178 176.969 178Z" stroke="#1A1A1A" stroke-width="1.5" stroke-miterlimit="10"/>
<path d="M176.969 172H126.031C124.917 172 124 173.355 124 175C124 176.645 124.917 178 126.031 178H176.969C178.083 178 179 176.645 179 175C179 173.355 178.116 172 176.969 172Z" stroke="#1A1A1A" stroke-width="1.5" stroke-miterlimit="10"/>
<path d="M176.969 165H126.031C124.917 165 124 166.581 124 168.5C124 170.419 124.917 172 126.031 172H176.969C178.083 172 179 170.419 179 168.5C179 166.581 178.116 165 176.969 165Z" stroke="#1A1A1A" stroke-width="1.5" stroke-miterlimit="10"/>
</g>
<defs>
<clipPath id="clip0">
<rect width="155" height="114" fill="white" transform="translate(26 91)"/>
</clipPath>
</defs>
</svg>
